<?xml version="1.0" encoding="UTF-8"?>
<svg id="Layer_1" xmlns="http://www.w3.org/2000/svg" version="1.1" viewBox="0 0 15 15">
  <!-- Generator: Adobe Illustrator 29.5.1, SVG Export Plug-In . SVG Version: 2.1.0 Build 141)  -->
  <defs>
    <style>
      .st0 {
        fill: #fff;
      }

      .st1 {
        fill: #1081c4;
      }
    </style>
  </defs>
  <path class="st0" d="M10.6,13.6h-2.1l-1-.3-1,.3h-2.2c-1.8,0-3.2-1.4-3.2-3.2v-6.2c0-1.8,1.4-3.2,3.2-3.2h6.2c1.8,0,3.2,1.4,3.2,3.2v6.2c0,1.8-1.4,3.2-3.2,3.2h.1Z"/>
  <path class="st1" d="M6.6,5.8v1.4h-1.6v1.8h1.6v4.5h1.9v-4.5h1.4l.3-1.8h-1.7v-1.2c0-.5.2-1,1-1h.8v-1.5s-.7-.1-1.4-.1c-1.4,0-2.4.9-2.4,2.4h.1Z"/>
</svg>