<?xml version="1.0" encoding="UTF-8"?>
<svg id="Layer_1" xmlns="http://www.w3.org/2000/svg" version="1.1" viewBox="0 0 15 15">
  <!-- Generator: Adobe Illustrator 29.3.1, SVG Export Plug-In . SVG Version: 2.1.0 Build 151)  -->
  <defs>
    <style>
      .st0 {
        fill: #fff;
      }
    </style>
  </defs>
  <path class="st0" d="M11.1,3.2c-.4,0-.8.4-.8.8s.4.8.8.8.8-.4.8-.8-.4-.8-.8-.8Z"/>
  <path class="st0" d="M7.6,4.2c-1.8,0-3.3,1.5-3.3,3.3s1.5,3.3,3.3,3.3,3.3-1.5,3.3-3.3-1.5-3.3-3.3-3.3ZM7.6,9.6c-1.2,0-2.1-1-2.1-2.1s1-2.1,2.1-2.1,2.1,1,2.1,2.1-.9,2.1-2.1,2.1Z"/>
  <path class="st0" d="M10.2,14.3h-5.4c-2.2,0-4.1-1.8-4.1-4.1v-5.4c0-2.3,1.8-4.1,4.1-4.1h5.4c2.2,0,4.1,1.8,4.1,4.1v5.4c0,2.2-1.8,4.1-4.1,4.1h0ZM4.8,2c-1.5,0-2.8,1.2-2.8,2.8v5.4c0,1.5,1.2,2.8,2.8,2.8h5.4c1.5,0,2.8-1.2,2.8-2.8v-5.4c0-1.5-1.2-2.8-2.8-2.8,0,0-5.4,0-5.4,0Z"/>
</svg>