<?xml version="1.0" encoding="UTF-8"?>
<svg id="Layer_1" xmlns="http://www.w3.org/2000/svg" version="1.1" viewBox="0 0 15 15">
  <!-- Generator: Adobe Illustrator 29.3.1, SVG Export Plug-In . SVG Version: 2.1.0 Build 151)  -->
  <defs>
    <style>
      .st0 {
        fill: #fff;
      }
    </style>
  </defs>
  <path class="st0" d="M1.7,5.5h2.5v8H1.7s0-8,0-8ZM3,1.5c.8,0,1.4.6,1.4,1.4s-.6,1.4-1.4,1.4-1.4-.6-1.4-1.4.6-1.4,1.4-1.4"/>
  <path class="st0" d="M5.8,5.5h2.4v1.1h0c.3-.6,1.1-1.3,2.3-1.3,2.5,0,3,1.7,3,3.8v4.4h-2.5v-3.9c0-.9,0-2.1-1.3-2.1s-1.5,1-1.5,2.1v3.9h-2.5s0-8,0-8Z"/>
</svg>